<svg width="394" height="34" viewBox="0 0 394 34" fill="none" xmlns="http://www.w3.org/2000/svg">
<g opacity="0.4">
<line x1="0.655565" y1="28.9324" x2="0.655561" y2="4.13307" stroke="black" stroke-width="0.688869"/>
<line x1="4.22844" y1="23.0769" x2="4.22844" y2="9.98839" stroke="black" stroke-width="0.688869"/>
<line x1="7.80095" y1="23.0769" x2="7.80095" y2="9.98839" stroke="black" stroke-width="0.688869"/>
<line x1="11.3737" y1="23.0769" x2="11.3737" y2="9.98839" stroke="black" stroke-width="0.688869"/>
<line x1="14.9466" y1="23.0769" x2="14.9466" y2="9.98839" stroke="black" stroke-width="0.688869"/>
<line x1="18.5191" y1="23.0769" x2="18.5191" y2="9.98839" stroke="black" stroke-width="0.688869"/>
<line x1="22.092" y1="23.0769" x2="22.092" y2="9.98839" stroke="black" stroke-width="0.688869"/>
<line x1="25.6647" y1="23.0769" x2="25.6647" y2="9.98839" stroke="black" stroke-width="0.688869"/>
<line x1="29.2372" y1="23.0769" x2="29.2372" y2="9.98839" stroke="black" stroke-width="0.688869"/>
<line x1="32.8101" y1="23.0769" x2="32.8101" y2="9.98839" stroke="black" stroke-width="0.688869"/>
<line x1="36.383" y1="30.3101" x2="36.383" y2="2.75528" stroke="black" stroke-width="0.688869"/>
<line x1="39.9554" y1="23.0769" x2="39.9554" y2="9.98839" stroke="black" stroke-width="0.688869"/>
<line x1="43.5282" y1="23.0769" x2="43.5282" y2="9.98839" stroke="black" stroke-width="0.688869"/>
<line x1="47.1011" y1="23.0769" x2="47.1011" y2="9.98839" stroke="black" stroke-width="0.688869"/>
<line x1="50.6736" y1="23.0769" x2="50.6736" y2="9.98839" stroke="black" stroke-width="0.688869"/>
<line x1="54.2464" y1="23.0769" x2="54.2464" y2="9.98839" stroke="black" stroke-width="0.688869"/>
<line x1="57.8193" y1="23.0769" x2="57.8193" y2="9.98839" stroke="black" stroke-width="0.688869"/>
<line x1="61.3918" y1="23.0769" x2="61.3918" y2="9.98839" stroke="black" stroke-width="0.688869"/>
<line x1="64.9646" y1="23.0769" x2="64.9646" y2="9.98839" stroke="black" stroke-width="0.688869"/>
<line x1="68.5374" y1="23.0769" x2="68.5374" y2="9.98839" stroke="black" stroke-width="0.688869"/>
<line x1="72.1099" y1="30.3101" x2="72.1099" y2="2.75528" stroke="black" stroke-width="0.688869"/>
<line x1="75.6828" y1="23.0769" x2="75.6828" y2="9.98839" stroke="black" stroke-width="0.688869"/>
<line x1="79.2557" y1="23.0769" x2="79.2557" y2="9.98839" stroke="black" stroke-width="0.688869"/>
<line x1="82.8282" y1="23.0769" x2="82.8282" y2="9.98839" stroke="black" stroke-width="0.688869"/>
<line x1="86.4009" y1="23.0769" x2="86.4009" y2="9.98839" stroke="black" stroke-width="0.688869"/>
<line x1="89.9738" y1="23.0769" x2="89.9738" y2="9.98839" stroke="black" stroke-width="0.688869"/>
<line x1="93.5467" y1="23.0769" x2="93.5467" y2="9.98839" stroke="black" stroke-width="0.688869"/>
<line x1="97.1192" y1="23.0769" x2="97.1192" y2="9.98839" stroke="black" stroke-width="0.688869"/>
<line x1="100.692" y1="23.0769" x2="100.692" y2="9.98839" stroke="black" stroke-width="0.688869"/>
<line x1="104.265" y1="23.0769" x2="104.265" y2="9.98839" stroke="black" stroke-width="0.688869"/>
<line x1="107.837" y1="30.3101" x2="107.837" y2="2.75528" stroke="black" stroke-width="0.688869"/>
<line x1="111.41" y1="23.0769" x2="111.41" y2="9.98839" stroke="black" stroke-width="0.688869"/>
<line x1="114.983" y1="23.0769" x2="114.983" y2="9.98839" stroke="black" stroke-width="0.688869"/>
<line x1="118.555" y1="23.0769" x2="118.555" y2="9.98839" stroke="black" stroke-width="0.688869"/>
<line x1="122.128" y1="23.0769" x2="122.128" y2="9.98839" stroke="black" stroke-width="0.688869"/>
<line x1="125.701" y1="23.0769" x2="125.701" y2="9.98839" stroke="black" stroke-width="0.688869"/>
<line x1="129.274" y1="23.0769" x2="129.274" y2="9.98839" stroke="black" stroke-width="0.688869"/>
<line x1="132.846" y1="23.0769" x2="132.846" y2="9.98839" stroke="black" stroke-width="0.688869"/>
<line x1="136.419" y1="23.0769" x2="136.419" y2="9.98839" stroke="black" stroke-width="0.688869"/>
<line x1="139.992" y1="23.0769" x2="139.992" y2="9.98839" stroke="black" stroke-width="0.688869"/>
<line x1="143.565" y1="30.3101" x2="143.565" y2="2.75528" stroke="black" stroke-width="0.688869"/>
<line x1="147.137" y1="23.0771" x2="147.137" y2="9.98863" stroke="black" stroke-width="0.688869"/>
<line x1="150.71" y1="23.0769" x2="150.71" y2="9.98839" stroke="black" stroke-width="0.688869"/>
<line x1="154.283" y1="23.0769" x2="154.283" y2="9.98839" stroke="black" stroke-width="0.688869"/>
<line x1="157.856" y1="23.0771" x2="157.856" y2="9.98863" stroke="black" stroke-width="0.688869"/>
<line x1="161.428" y1="23.0771" x2="161.428" y2="9.98863" stroke="black" stroke-width="0.688869"/>
<line x1="165.001" y1="23.0769" x2="165.001" y2="9.98839" stroke="black" stroke-width="0.688869"/>
<line x1="168.574" y1="23.0771" x2="168.574" y2="9.98863" stroke="black" stroke-width="0.688869"/>
<line x1="172.146" y1="23.0771" x2="172.146" y2="9.98863" stroke="black" stroke-width="0.688869"/>
<line x1="175.719" y1="23.0769" x2="175.719" y2="9.98839" stroke="black" stroke-width="0.688869"/>
<line x1="179.292" y1="30.3103" x2="179.292" y2="2.75553" stroke="black" stroke-width="0.688869"/>
<line x1="182.865" y1="23.0771" x2="182.865" y2="9.98863" stroke="black" stroke-width="0.688869"/>
<line x1="186.437" y1="23.0769" x2="186.437" y2="9.98839" stroke="black" stroke-width="0.688869"/>
<line x1="190.01" y1="23.0771" x2="190.01" y2="9.98863" stroke="black" stroke-width="0.688869"/>
<line x1="193.583" y1="23.0771" x2="193.583" y2="9.98863" stroke="black" stroke-width="0.688869"/>
<line x1="197.156" y1="23.0769" x2="197.156" y2="9.98839" stroke="black" stroke-width="0.688869"/>
<line x1="200.728" y1="23.0771" x2="200.728" y2="9.98863" stroke="black" stroke-width="0.688869"/>
<line x1="204.301" y1="23.0771" x2="204.301" y2="9.98863" stroke="black" stroke-width="0.688869"/>
<line x1="207.874" y1="23.0769" x2="207.874" y2="9.98839" stroke="black" stroke-width="0.688869"/>
<line x1="211.446" y1="23.0771" x2="211.446" y2="9.98863" stroke="black" stroke-width="0.688869"/>
<line x1="215.019" y1="30.3103" x2="215.019" y2="2.75553" stroke="black" stroke-width="0.688869"/>
<line x1="218.592" y1="23.0769" x2="218.592" y2="9.98839" stroke="black" stroke-width="0.688869"/>
<line x1="222.164" y1="23.0771" x2="222.164" y2="9.98863" stroke="black" stroke-width="0.688869"/>
<line x1="225.737" y1="23.0771" x2="225.737" y2="9.98863" stroke="black" stroke-width="0.688869"/>
<line x1="229.31" y1="23.0771" x2="229.31" y2="9.98863" stroke="black" stroke-width="0.688869"/>
<line x1="232.883" y1="23.0771" x2="232.883" y2="9.98863" stroke="black" stroke-width="0.688869"/>
<line x1="236.455" y1="23.0771" x2="236.455" y2="9.98863" stroke="black" stroke-width="0.688869"/>
<line x1="240.028" y1="23.0771" x2="240.028" y2="9.98863" stroke="black" stroke-width="0.688869"/>
<line x1="243.601" y1="23.0771" x2="243.601" y2="9.98863" stroke="black" stroke-width="0.688869"/>
<line x1="247.174" y1="23.0771" x2="247.174" y2="9.98863" stroke="black" stroke-width="0.688869"/>
<line x1="250.746" y1="30.3103" x2="250.746" y2="2.75553" stroke="black" stroke-width="0.688869"/>
<line x1="254.319" y1="23.0771" x2="254.319" y2="9.98863" stroke="black" stroke-width="0.688869"/>
<line x1="257.892" y1="23.0771" x2="257.892" y2="9.98863" stroke="black" stroke-width="0.688869"/>
<line x1="261.464" y1="23.0771" x2="261.464" y2="9.98863" stroke="black" stroke-width="0.688869"/>
<line x1="265.037" y1="23.0771" x2="265.037" y2="9.98863" stroke="black" stroke-width="0.688869"/>
<line x1="268.61" y1="23.0771" x2="268.61" y2="9.98863" stroke="black" stroke-width="0.688869"/>
<line x1="272.183" y1="23.0771" x2="272.183" y2="9.98863" stroke="black" stroke-width="0.688869"/>
<line x1="275.755" y1="23.0771" x2="275.755" y2="9.98863" stroke="black" stroke-width="0.688869"/>
<line x1="279.328" y1="23.0771" x2="279.328" y2="9.98863" stroke="black" stroke-width="0.688869"/>
<line x1="282.901" y1="23.0771" x2="282.901" y2="9.98863" stroke="black" stroke-width="0.688869"/>
<line x1="286.473" y1="30.3103" x2="286.473" y2="2.75553" stroke="black" stroke-width="0.688869"/>
<line x1="290.046" y1="23.0771" x2="290.046" y2="9.98863" stroke="black" stroke-width="0.688869"/>
<line x1="293.619" y1="23.0771" x2="293.619" y2="9.98863" stroke="black" stroke-width="0.688869"/>
<line x1="297.192" y1="23.0771" x2="297.192" y2="9.98863" stroke="black" stroke-width="0.688869"/>
<line x1="300.764" y1="23.0771" x2="300.764" y2="9.98863" stroke="black" stroke-width="0.688869"/>
<line x1="304.337" y1="23.0771" x2="304.337" y2="9.98863" stroke="black" stroke-width="0.688869"/>
<line x1="307.91" y1="23.0771" x2="307.91" y2="9.98863" stroke="black" stroke-width="0.688869"/>
<line x1="311.483" y1="23.0771" x2="311.483" y2="9.98863" stroke="black" stroke-width="0.688869"/>
<line x1="315.055" y1="23.0771" x2="315.055" y2="9.98863" stroke="black" stroke-width="0.688869"/>
<line x1="318.628" y1="23.0771" x2="318.628" y2="9.98863" stroke="black" stroke-width="0.688869"/>
<line x1="322.201" y1="30.3103" x2="322.201" y2="2.75553" stroke="black" stroke-width="0.688869"/>
<line x1="325.773" y1="23.0771" x2="325.773" y2="9.98863" stroke="black" stroke-width="0.688869"/>
<line x1="329.346" y1="23.0771" x2="329.346" y2="9.98863" stroke="black" stroke-width="0.688869"/>
<line x1="332.919" y1="23.0771" x2="332.919" y2="9.98863" stroke="black" stroke-width="0.688869"/>
<line x1="336.492" y1="23.0771" x2="336.492" y2="9.98863" stroke="black" stroke-width="0.688869"/>
<line x1="340.064" y1="23.0771" x2="340.064" y2="9.98863" stroke="black" stroke-width="0.688869"/>
<line x1="343.637" y1="23.0771" x2="343.637" y2="9.98863" stroke="black" stroke-width="0.688869"/>
<line x1="347.21" y1="23.0771" x2="347.21" y2="9.98863" stroke="black" stroke-width="0.688869"/>
<line x1="350.783" y1="23.0771" x2="350.783" y2="9.98863" stroke="black" stroke-width="0.688869"/>
<line x1="354.355" y1="23.0771" x2="354.355" y2="9.98863" stroke="black" stroke-width="0.688869"/>
<line x1="357.928" y1="30.3103" x2="357.928" y2="2.75553" stroke="black" stroke-width="0.688869"/>
<line x1="361.501" y1="23.0771" x2="361.501" y2="9.98863" stroke="black" stroke-width="0.688869"/>
<line x1="365.073" y1="23.0771" x2="365.073" y2="9.98863" stroke="black" stroke-width="0.688869"/>
<line x1="368.646" y1="23.0771" x2="368.646" y2="9.98863" stroke="black" stroke-width="0.688869"/>
<line x1="372.219" y1="23.0771" x2="372.219" y2="9.98863" stroke="black" stroke-width="0.688869"/>
<line x1="375.792" y1="23.0771" x2="375.792" y2="9.98863" stroke="black" stroke-width="0.688869"/>
<line x1="379.364" y1="23.0771" x2="379.364" y2="9.98863" stroke="black" stroke-width="0.688869"/>
<line x1="382.937" y1="23.0771" x2="382.937" y2="9.98863" stroke="black" stroke-width="0.688869"/>
<line x1="386.51" y1="23.0771" x2="386.51" y2="9.98863" stroke="black" stroke-width="0.688869"/>
<line x1="390.082" y1="23.0771" x2="390.082" y2="9.98863" stroke="black" stroke-width="0.688869"/>
<line x1="393.655" y1="30.3103" x2="393.655" y2="2.75553" stroke="black" stroke-width="0.688869"/>
</g>
</svg>
