<svg width="96" height="1136" viewBox="0 0 96 1136" fill="none" xmlns="http://www.w3.org/2000/svg">
<g opacity="0.4">
<line x1="12" y1="1" x2="84" y2="0.999991" stroke="black" stroke-width="2"/>
<line x1="29" y1="11.3091" x2="67" y2="11.3091" stroke="black" stroke-width="2"/>
<line x1="29" y1="21.6182" x2="67" y2="21.6182" stroke="black" stroke-width="2"/>
<line x1="29" y1="31.9272" x2="67" y2="31.9272" stroke="black" stroke-width="2"/>
<line x1="29" y1="42.2363" x2="67" y2="42.2363" stroke="black" stroke-width="2"/>
<line x1="29" y1="52.5454" x2="67" y2="52.5454" stroke="black" stroke-width="2"/>
<line x1="29" y1="62.8545" x2="67" y2="62.8545" stroke="black" stroke-width="2"/>
<line x1="29" y1="73.1636" x2="67" y2="73.1636" stroke="black" stroke-width="2"/>
<line x1="29" y1="83.4727" x2="67" y2="83.4726" stroke="black" stroke-width="2"/>
<line x1="29" y1="93.7817" x2="67" y2="93.7817" stroke="black" stroke-width="2"/>
<line x1="8" y1="104.091" x2="88" y2="104.091" stroke="black" stroke-width="2"/>
<line x1="29" y1="114.4" x2="67" y2="114.4" stroke="black" stroke-width="2"/>
<line x1="29" y1="124.709" x2="67" y2="124.709" stroke="black" stroke-width="2"/>
<line x1="29" y1="135.018" x2="67" y2="135.018" stroke="black" stroke-width="2"/>
<line x1="29" y1="145.327" x2="67" y2="145.327" stroke="black" stroke-width="2"/>
<line x1="29" y1="155.636" x2="67" y2="155.636" stroke="black" stroke-width="2"/>
<line x1="29" y1="165.945" x2="67" y2="165.945" stroke="black" stroke-width="2"/>
<line x1="29" y1="176.254" x2="67" y2="176.254" stroke="black" stroke-width="2"/>
<line x1="29" y1="186.563" x2="67" y2="186.563" stroke="black" stroke-width="2"/>
<line x1="29" y1="196.873" x2="67" y2="196.873" stroke="black" stroke-width="2"/>
<line x1="8" y1="207.182" x2="88" y2="207.182" stroke="black" stroke-width="2"/>
<line x1="29" y1="217.491" x2="67" y2="217.491" stroke="black" stroke-width="2"/>
<line x1="29" y1="227.8" x2="67" y2="227.8" stroke="black" stroke-width="2"/>
<line x1="29" y1="238.109" x2="67" y2="238.109" stroke="black" stroke-width="2"/>
<line x1="29" y1="248.418" x2="67" y2="248.418" stroke="black" stroke-width="2"/>
<line x1="29" y1="258.728" x2="67" y2="258.728" stroke="black" stroke-width="2"/>
<line x1="29" y1="269.037" x2="67" y2="269.037" stroke="black" stroke-width="2"/>
<line x1="29" y1="279.346" x2="67" y2="279.346" stroke="black" stroke-width="2"/>
<line x1="29" y1="289.655" x2="67" y2="289.655" stroke="black" stroke-width="2"/>
<line x1="29" y1="299.964" x2="67" y2="299.964" stroke="black" stroke-width="2"/>
<line x1="8" y1="310.273" x2="88" y2="310.273" stroke="black" stroke-width="2"/>
<line x1="29" y1="320.582" x2="67" y2="320.582" stroke="black" stroke-width="2"/>
<line x1="29" y1="330.891" x2="67" y2="330.891" stroke="black" stroke-width="2"/>
<line x1="29" y1="341.2" x2="67" y2="341.2" stroke="black" stroke-width="2"/>
<line x1="29" y1="351.509" x2="67" y2="351.509" stroke="black" stroke-width="2"/>
<line x1="29" y1="361.818" x2="67" y2="361.818" stroke="black" stroke-width="2"/>
<line x1="29" y1="372.127" x2="67" y2="372.127" stroke="black" stroke-width="2"/>
<line x1="29" y1="382.437" x2="67" y2="382.437" stroke="black" stroke-width="2"/>
<line x1="29" y1="392.746" x2="67" y2="392.746" stroke="black" stroke-width="2"/>
<line x1="29" y1="403.055" x2="67" y2="403.055" stroke="black" stroke-width="2"/>
<line x1="8" y1="413.364" x2="88" y2="413.364" stroke="black" stroke-width="2"/>
<line x1="29" y1="423.673" x2="67" y2="423.673" stroke="black" stroke-width="2"/>
<line x1="29" y1="433.982" x2="67" y2="433.982" stroke="black" stroke-width="2"/>
<line x1="29" y1="444.291" x2="67" y2="444.291" stroke="black" stroke-width="2"/>
<line x1="29" y1="454.6" x2="67" y2="454.6" stroke="black" stroke-width="2"/>
<line x1="29" y1="464.909" x2="67" y2="464.909" stroke="black" stroke-width="2"/>
<line x1="29" y1="475.218" x2="67" y2="475.218" stroke="black" stroke-width="2"/>
<line x1="29" y1="485.527" x2="67" y2="485.527" stroke="black" stroke-width="2"/>
<line x1="29" y1="495.836" x2="67" y2="495.836" stroke="black" stroke-width="2"/>
<line x1="29" y1="506.146" x2="67" y2="506.146" stroke="black" stroke-width="2"/>
<line x1="8" y1="516.455" x2="88" y2="516.455" stroke="black" stroke-width="2"/>
<line x1="29" y1="526.764" x2="67" y2="526.764" stroke="black" stroke-width="2"/>
<line x1="29" y1="537.073" x2="67" y2="537.073" stroke="black" stroke-width="2"/>
<line x1="29" y1="547.382" x2="67" y2="547.382" stroke="black" stroke-width="2"/>
<line x1="29" y1="557.691" x2="67" y2="557.691" stroke="black" stroke-width="2"/>
<line x1="29" y1="568" x2="67" y2="568" stroke="black" stroke-width="2"/>
<line x1="29" y1="578.309" x2="67" y2="578.309" stroke="black" stroke-width="2"/>
<line x1="29" y1="588.618" x2="67" y2="588.618" stroke="black" stroke-width="2"/>
<line x1="29" y1="598.927" x2="67" y2="598.927" stroke="black" stroke-width="2"/>
<line x1="29" y1="609.236" x2="67" y2="609.236" stroke="black" stroke-width="2"/>
<line x1="8" y1="619.545" x2="88" y2="619.545" stroke="black" stroke-width="2"/>
<line x1="29" y1="629.854" x2="67" y2="629.854" stroke="black" stroke-width="2"/>
<line x1="29" y1="640.164" x2="67" y2="640.164" stroke="black" stroke-width="2"/>
<line x1="29" y1="650.473" x2="67" y2="650.473" stroke="black" stroke-width="2"/>
<line x1="29" y1="660.782" x2="67" y2="660.782" stroke="black" stroke-width="2"/>
<line x1="29" y1="671.091" x2="67" y2="671.091" stroke="black" stroke-width="2"/>
<line x1="29" y1="681.4" x2="67" y2="681.4" stroke="black" stroke-width="2"/>
<line x1="29" y1="691.709" x2="67" y2="691.709" stroke="black" stroke-width="2"/>
<line x1="29" y1="702.018" x2="67" y2="702.018" stroke="black" stroke-width="2"/>
<line x1="29" y1="712.327" x2="67" y2="712.327" stroke="black" stroke-width="2"/>
<line x1="8" y1="722.636" x2="88" y2="722.636" stroke="black" stroke-width="2"/>
<line x1="29" y1="732.945" x2="67" y2="732.945" stroke="black" stroke-width="2"/>
<line x1="29" y1="743.254" x2="67" y2="743.254" stroke="black" stroke-width="2"/>
<line x1="29" y1="753.563" x2="67" y2="753.563" stroke="black" stroke-width="2"/>
<line x1="29" y1="763.873" x2="67" y2="763.873" stroke="black" stroke-width="2"/>
<line x1="29" y1="774.182" x2="67" y2="774.182" stroke="black" stroke-width="2"/>
<line x1="29" y1="784.491" x2="67" y2="784.491" stroke="black" stroke-width="2"/>
<line x1="29" y1="794.8" x2="67" y2="794.8" stroke="black" stroke-width="2"/>
<line x1="29" y1="805.109" x2="67" y2="805.109" stroke="black" stroke-width="2"/>
<line x1="29" y1="815.418" x2="67" y2="815.418" stroke="black" stroke-width="2"/>
<line x1="8" y1="825.727" x2="88" y2="825.727" stroke="black" stroke-width="2"/>
<line x1="29" y1="836.036" x2="67" y2="836.036" stroke="black" stroke-width="2"/>
<line x1="29" y1="846.345" x2="67" y2="846.345" stroke="black" stroke-width="2"/>
<line x1="29" y1="856.654" x2="67" y2="856.654" stroke="black" stroke-width="2"/>
<line x1="29" y1="866.963" x2="67" y2="866.963" stroke="black" stroke-width="2"/>
<line x1="29" y1="877.272" x2="67" y2="877.272" stroke="black" stroke-width="2"/>
<line x1="29" y1="887.582" x2="67" y2="887.582" stroke="black" stroke-width="2"/>
<line x1="29" y1="897.891" x2="67" y2="897.891" stroke="black" stroke-width="2"/>
<line x1="29" y1="908.2" x2="67" y2="908.2" stroke="black" stroke-width="2"/>
<line x1="29" y1="918.509" x2="67" y2="918.509" stroke="black" stroke-width="2"/>
<line x1="8" y1="928.818" x2="88" y2="928.818" stroke="black" stroke-width="2"/>
<line x1="29" y1="939.127" x2="67" y2="939.127" stroke="black" stroke-width="2"/>
<line x1="29" y1="949.436" x2="67" y2="949.436" stroke="black" stroke-width="2"/>
<line x1="29" y1="959.745" x2="67" y2="959.745" stroke="black" stroke-width="2"/>
<line x1="29" y1="970.054" x2="67" y2="970.054" stroke="black" stroke-width="2"/>
<line x1="29" y1="980.363" x2="67" y2="980.363" stroke="black" stroke-width="2"/>
<line x1="29" y1="990.672" x2="67" y2="990.672" stroke="black" stroke-width="2"/>
<line x1="29" y1="1000.98" x2="67" y2="1000.98" stroke="black" stroke-width="2"/>
<line x1="29" y1="1011.29" x2="67" y2="1011.29" stroke="black" stroke-width="2"/>
<line x1="29" y1="1021.6" x2="67" y2="1021.6" stroke="black" stroke-width="2"/>
<line x1="8" y1="1031.91" x2="88" y2="1031.91" stroke="black" stroke-width="2"/>
<line x1="29" y1="1042.22" x2="67" y2="1042.22" stroke="black" stroke-width="2"/>
<line x1="29" y1="1052.53" x2="67" y2="1052.53" stroke="black" stroke-width="2"/>
<line x1="29" y1="1062.84" x2="67" y2="1062.84" stroke="black" stroke-width="2"/>
<line x1="29" y1="1073.15" x2="67" y2="1073.15" stroke="black" stroke-width="2"/>
<line x1="29" y1="1083.45" x2="67" y2="1083.45" stroke="black" stroke-width="2"/>
<line x1="29" y1="1093.76" x2="67" y2="1093.76" stroke="black" stroke-width="2"/>
<line x1="29" y1="1104.07" x2="67" y2="1104.07" stroke="black" stroke-width="2"/>
<line x1="29" y1="1114.38" x2="67" y2="1114.38" stroke="black" stroke-width="2"/>
<line x1="29" y1="1124.69" x2="67" y2="1124.69" stroke="black" stroke-width="2"/>
<line x1="8" y1="1135" x2="88" y2="1135" stroke="black" stroke-width="2"/>
</g>
</svg>
