<svg width="175" height="36" viewBox="0 0 175 36" fill="none" xmlns="http://www.w3.org/2000/svg">
<path d="M87.4657 8.1751L88.999 14.9257H91.0021L93.3515 6.31839H91.5709L89.8769 13.1058L88.356 6.31839H86.5754L85.0545 13.1058L83.3605 6.31839H81.5799L83.9293 14.9257H85.9324L87.4657 8.1751Z" fill="black"/>
<path d="M94.9755 6.31839V14.9257H96.5582V6.31839H94.9755Z" fill="black"/>
<path d="M98.7821 12.159C98.8316 13.5239 99.5364 15.1839 102.504 15.1839C103.963 15.1839 106.127 14.8642 106.127 12.4296C106.127 10.5237 104.804 10.081 102.801 9.72441C101.849 9.55227 100.872 9.40471 100.872 8.5071C100.872 7.36356 102.306 7.36356 102.541 7.36356C102.999 7.36356 104.21 7.38815 104.359 8.59317H105.929C105.818 7.27749 104.866 6.06017 102.578 6.06017C101.873 6.06017 99.1778 6.13395 99.1778 8.56858C99.1778 10.3146 100.451 10.7327 101.861 11.0524C102.195 11.1262 102.529 11.1999 102.875 11.2614C103.431 11.3721 104.433 11.5565 104.433 12.5894C104.433 13.7944 103.184 13.8805 102.603 13.8805C100.785 13.8805 100.39 12.8107 100.352 12.159H98.7821Z" fill="black"/>
<path d="M109.93 11.0647H113.788V14.9257H115.371V6.31839H113.788V9.7613H109.93V6.31839H108.348V14.9257H109.93V11.0647Z" fill="black"/>
<path d="M84.2631 24.615V22.3771H89.1721V21.0737H82.6804V29.681H89.3081V28.3776H84.2631V25.9184H88.6651V24.615H84.2631Z" fill="black"/>
<path d="M92.7666 23.5698L96.9212 29.681H98.6029V21.0737H97.0202V27.1849L92.8655 21.0737H91.1838V29.681H92.7666V23.5698Z" fill="black"/>
<path d="M105.361 25.07V26.3733H107.475C107.438 28.2915 105.954 28.6358 105.188 28.6358C104.161 28.6358 102.517 28.021 102.517 25.4634C102.517 24.1355 102.875 22.1189 105.076 22.1189C106.672 22.1189 107.141 23.078 107.228 23.7297H108.798C108.699 22.5247 108.032 20.8155 105.076 20.8155C103.506 20.8155 100.823 21.4918 100.823 25.5249C100.823 28.894 103.049 29.9392 105.052 29.9392C106.412 29.9392 107.277 29.3982 107.735 28.5129H107.76V29.681H108.897V25.07H105.361Z" fill="black"/>
<path d="M111.282 21.0737V29.681H112.865V21.0737H111.282Z" fill="black"/>
<path d="M117.166 23.5698L121.321 29.681H123.002V21.0737H121.42V27.1849L117.265 21.0737H115.583V29.681H117.166V23.5698Z" fill="black"/>
<path d="M127.3 24.615V22.3771H132.208V21.0737H125.717V29.681H132.345V28.3776H127.3V25.9184H131.702V24.615H127.3Z" fill="black"/>
<path d="M135.803 24.615V22.3771H140.712V21.0737H134.22V29.681H140.848V28.3776H135.803V25.9184H140.205V24.615H135.803Z" fill="black"/>
<path d="M142.724 29.681H144.306V26.2627H146.136C147.905 26.2627 147.966 27.0988 147.966 27.8858C147.966 28.9924 147.991 29.2875 148.239 29.681H149.871C149.549 29.2752 149.562 28.9801 149.549 27.8243C149.537 27.0496 149.512 25.9799 148.276 25.5864V25.5618C148.968 25.3651 149.722 24.7503 149.722 23.4715C149.722 21.2213 147.657 21.0737 146.594 21.0737H142.724V29.681ZM144.306 22.3771H146.322C146.965 22.3771 148.09 22.4263 148.09 23.6682C148.09 24.8363 147.089 24.9593 146.285 24.9593H144.306V22.3771Z" fill="black"/>
<path d="M152.097 21.0737V29.681H153.679V21.0737H152.097Z" fill="black"/>
<path d="M157.98 23.5698L162.135 29.681H163.817V21.0737H162.234V27.1849L158.079 21.0737H156.398V29.681H157.98V23.5698Z" fill="black"/>
<path d="M170.575 25.07V26.3733H172.689C172.652 28.2915 171.168 28.6358 170.402 28.6358C169.375 28.6358 167.731 28.021 167.731 25.4634C167.731 24.1355 168.089 22.1189 170.29 22.1189C171.885 22.1189 172.355 23.078 172.442 23.7297H174.012C173.913 22.5247 173.246 20.8155 170.29 20.8155C168.72 20.8155 166.037 21.4918 166.037 25.5249C166.037 28.894 168.262 29.9392 170.266 29.9392C171.626 29.9392 172.491 29.3982 172.949 28.5129H172.974V29.681H174.111V25.07H170.575Z" fill="black"/>
<path d="M0 6.06018L9.65323 29.9392L9.65568 29.9382L11.8991 24.6501L4.38407 6.06017L0 6.06018Z" fill="black"/>
<path d="M9.65323 6.06017L19.3065 29.9392H32.8337V26.3828H22.2528L14.0373 6.06017H9.65323Z" fill="black"/>
<path d="M23.2257 16.2215L24.6634 19.7779H32.8337V16.2215H23.2257Z" fill="black"/>
<path d="M20.5557 9.61662H32.8337V6.06017H19.1179L20.5557 9.61662Z" fill="black"/>
<rect x="57" width="1" height="36" fill="black"/>
</svg>
