<svg xmlns="http://www.w3.org/2000/svg" xmlns:xlink="http://www.w3.org/1999/xlink">
	<symbol id="arrow-right" viewBox="0 0 11 19" xmlns="http://www.w3.org/2000/svg">
		<path fill-rule="evenodd" clip-rule="evenodd" d="M6.5969 9.33678L0 2.00689L2.22988 0L10.633 9.33678L2.22988 18.6736L0 16.6667L6.5969 9.33678Z"/>
	</symbol>		
	<symbol id="social-btn" viewBox="0 0 32 32"  xmlns="http://www.w3.org/2000/svg">
		<path fill-rule="evenodd" clip-rule="evenodd" d="M22 3H10C6.13401 3 3 6.13401 3 10V22C3 25.866 6.13401 29 10 29H29V10C29 6.13401 25.866 3 22 3ZM10 0C4.47715 0 0 4.47715 0 10V22C0 27.5228 4.47715 32 10 32H32V10C32 4.47715 27.5228 0 22 0H10Z"/>
		<path d="M23 23H26V26H23V23Z"/>
		<path fill-rule="evenodd" clip-rule="evenodd" d="M23 23V26H26V23H23Z"/>
		<path d="M12 23H20V26H12V23Z"/>
		<path fill-rule="evenodd" clip-rule="evenodd" d="M12 23V26H20V23H12Z"/>
	</symbol>		
	<symbol id="telegram" viewBox="0 0 25 20" xmlns="http://www.w3.org/2000/svg">
		<path d="M2.14987 8.64452C8.59231 5.89262 12.8883 4.0784 15.0378 3.20186C21.175 0.699151 22.4503 0.264404 23.2815 0.249895C23.4643 0.246891 23.8731 0.291311 24.1379 0.501953C24.3614 0.679814 24.4229 0.92008 24.4524 1.08871C24.4818 1.25735 24.5185 1.64149 24.4893 1.94166C24.1568 5.36767 22.7177 13.6817 21.9856 17.5189C21.6758 19.1425 21.0658 19.687 20.4753 19.7402C19.1919 19.856 18.2174 18.9087 16.9744 18.1099C15.0294 16.8598 13.9305 16.0817 12.0425 14.8619C9.86064 13.4522 11.2751 12.6774 12.5185 11.4112C12.844 11.0798 18.4985 6.03734 18.6079 5.57991C18.6216 5.5227 18.6343 5.30945 18.5051 5.19685C18.3759 5.08424 18.1851 5.12275 18.0475 5.15337C17.8524 5.19678 14.7452 7.21032 8.72584 11.194C7.84386 11.7878 7.04499 12.0771 6.32924 12.0619C5.54017 12.0452 4.02233 11.6245 2.89397 11.2649C1.50999 10.8238 0.410032 10.5906 0.505814 9.84157C0.555703 9.45141 1.10372 9.05239 2.14987 8.64452Z"/>
	</symbol>		
	<symbol id="whatsapp" viewBox="0 0 24 24" xmlns="http://www.w3.org/2000/svg">
		<path d="M0.754515 23.25L2.27552 17.661C1.2733 15.943 0.746748 13.989 0.750015 12C0.750015 5.78663 5.78664 0.75 12 0.75C18.2134 0.75 23.25 5.78663 23.25 12C23.25 18.2134 18.2134 23.25 12 23.25C10.0119 23.2532 8.05875 22.7271 6.34126 21.7256L0.754515 23.25ZM7.93989 6.7215C7.79461 6.73052 7.65265 6.76879 7.52252 6.834C7.40048 6.90311 7.28907 6.9895 7.19176 7.0905C7.05676 7.21763 6.98027 7.32788 6.89814 7.43475C6.48235 7.97587 6.2587 8.6401 6.26252 9.3225C6.26477 9.87375 6.40876 10.4104 6.63377 10.9121C7.09389 11.9269 7.85102 13.0012 8.85114 13.9969C9.09189 14.2365 9.32701 14.4773 9.58014 14.7011C10.8215 15.794 12.3007 16.5822 13.9001 17.0029L14.5403 17.1007C14.7484 17.112 14.9565 17.0963 15.1658 17.0861C15.4934 17.0692 15.8133 16.9805 16.1029 16.8263C16.2502 16.7504 16.394 16.6678 16.5338 16.5787C16.5338 16.5787 16.5821 16.5472 16.6744 16.4775C16.8263 16.365 16.9196 16.2851 17.0456 16.1535C17.139 16.0568 17.22 15.9431 17.2819 15.8138C17.3696 15.6304 17.4574 15.2805 17.4934 14.9891C17.5204 14.7664 17.5125 14.6449 17.5091 14.5695C17.5046 14.4491 17.4045 14.3243 17.2954 14.2714L16.6406 13.9778C16.6406 13.9778 15.6619 13.5514 15.0645 13.2791C15.0015 13.2517 14.934 13.236 14.8654 13.233C14.7884 13.2251 14.7106 13.2338 14.6373 13.2584C14.5639 13.283 14.4967 13.3231 14.4401 13.3759V13.3736C14.4345 13.3736 14.3591 13.4377 13.5458 14.4233C13.4991 14.486 13.4348 14.5334 13.361 14.5594C13.2873 14.5855 13.2075 14.589 13.1318 14.5695C13.0585 14.5499 12.9867 14.5251 12.9169 14.4953C12.7774 14.4368 12.729 14.4143 12.6334 14.3726L12.6278 14.3704C11.9842 14.0894 11.3883 13.7098 10.8615 13.2454C10.7198 13.1216 10.5881 12.9866 10.4531 12.8561C10.0105 12.4323 9.62482 11.9528 9.30564 11.4296L9.23926 11.3228C9.19159 11.2509 9.15304 11.1735 9.12452 11.0921C9.08177 10.9268 9.19314 10.794 9.19314 10.794C9.19314 10.794 9.46652 10.4948 9.59364 10.3327C9.69949 10.1981 9.79825 10.058 9.88951 9.91313C10.0223 9.69938 10.0639 9.48 9.99414 9.31013C9.67914 8.54063 9.35289 7.7745 9.01764 7.014C8.95127 6.86325 8.75439 6.75525 8.57552 6.73387C8.51477 6.72712 8.45401 6.72038 8.39326 6.71588C8.24218 6.70837 8.09079 6.711 7.93989 6.7215Z"/>
	</symbol>		
	<symbol id="instagram" viewBox="0 0 24 24" xmlns="http://www.w3.org/2000/svg">
		<path d="M12 7.90001C11.1891 7.90001 10.3964 8.14048 9.72218 8.59099C9.04794 9.0415 8.52243 9.68184 8.21211 10.431C7.90179 11.1802 7.8206 12.0046 7.9788 12.7999C8.13699 13.5952 8.52748 14.3258 9.10088 14.8992C9.67427 15.4725 10.4048 15.863 11.2001 16.0212C11.9955 16.1794 12.8198 16.0982 13.569 15.7879C14.3182 15.4776 14.9585 14.9521 15.409 14.2779C15.8596 13.6036 16.1 12.8109 16.1 12C16.1013 11.4612 15.9962 10.9275 15.7906 10.4295C15.585 9.93142 15.2831 9.47892 14.9021 9.09794C14.5211 8.71695 14.0686 8.415 13.5706 8.20942C13.0725 8.00385 12.5388 7.8987 12 7.90001ZM12 14.67C11.4719 14.67 10.9557 14.5134 10.5166 14.22C10.0776 13.9267 9.73534 13.5097 9.53326 13.0218C9.33117 12.5339 9.2783 11.9971 9.38132 11.4791C9.48434 10.9612 9.73863 10.4854 10.112 10.112C10.4854 9.73863 10.9612 9.48434 11.4791 9.38132C11.9971 9.2783 12.5339 9.33117 13.0218 9.53326C13.5097 9.73534 13.9267 10.0776 14.22 10.5166C14.5134 10.9557 14.67 11.4719 14.67 12C14.67 12.7081 14.3887 13.3873 13.888 13.888C13.3873 14.3887 12.7081 14.67 12 14.67ZM17.23 7.73001C17.23 7.9278 17.1714 8.12114 17.0615 8.28558C16.9516 8.45003 16.7954 8.57821 16.6127 8.65389C16.43 8.72958 16.2289 8.74938 16.0349 8.7108C15.8409 8.67221 15.6628 8.57697 15.5229 8.43712C15.3831 8.29727 15.2878 8.11909 15.2492 7.92511C15.2106 7.73112 15.2304 7.53006 15.3061 7.34733C15.3818 7.16461 15.51 7.00843 15.6744 6.89855C15.8389 6.78866 16.0322 6.73001 16.23 6.73001C16.4952 6.73001 16.7496 6.83537 16.9371 7.02291C17.1247 7.21044 17.23 7.4648 17.23 7.73001ZM19.94 8.73001C19.9691 7.48684 19.5054 6.28261 18.65 5.38001C17.7522 4.5137 16.5474 4.03897 15.3 4.06001C14 4.00001 10 4.00001 8.70001 4.06001C7.45722 4.0331 6.25379 4.49652 5.35001 5.35001C4.49465 6.25261 4.03093 7.45684 4.06001 8.70001C4.00001 10 4.00001 14 4.06001 15.3C4.03093 16.5432 4.49465 17.7474 5.35001 18.65C6.25379 19.5035 7.45722 19.9669 8.70001 19.94C10.02 20.02 13.98 20.02 15.3 19.94C16.5432 19.9691 17.7474 19.5054 18.65 18.65C19.5054 17.7474 19.9691 16.5432 19.94 15.3C20 14 20 10 19.94 8.70001V8.73001ZM18.24 16.73C18.1042 17.074 17.8993 17.3863 17.6378 17.6478C17.3763 17.9093 17.064 18.1142 16.72 18.25C15.1676 18.5639 13.5806 18.6715 12 18.57C10.4228 18.6716 8.83902 18.564 7.29001 18.25C6.94608 18.1142 6.63369 17.9093 6.37223 17.6478C6.11076 17.3863 5.90579 17.074 5.77001 16.73C5.35001 15.67 5.44001 13.17 5.44001 12.01C5.44001 10.85 5.35001 8.34001 5.77001 7.29001C5.90196 6.94268 6.10547 6.62698 6.36733 6.36339C6.62919 6.09981 6.94355 5.89423 7.29001 5.76001C8.83902 5.44599 10.4228 5.33839 12 5.44001C13.5806 5.33856 15.1676 5.44616 16.72 5.76001C17.064 5.89579 17.3763 6.10076 17.6378 6.36223C17.8993 6.62369 18.1042 6.93608 18.24 7.28001C18.66 8.34001 18.56 10.84 18.56 12C18.56 13.16 18.66 15.67 18.24 16.72V16.73Z"/>
	</symbol>
	<symbol id="facebook" viewBox="0 0 512 512" xmlns="http://www.w3.org/2000/svg">
		<path d="M283.122,122.174c0,5.24,0,22.319,0,46.583h83.424l-9.045,74.367h-74.379 c0,114.688,0,268.375,0,268.375h-98.726c0,0,0-151.653,0-268.375h-51.443v-74.367h51.443c0-29.492,0-50.463,0-56.302 c0-27.82-2.096-41.02,9.725-62.578C205.948,28.32,239.308-0.174,297.007,0.512c57.713,0.711,82.04,6.263,82.04,6.263 l-12.501,79.257c0,0-36.853-9.731-54.942-6.263C293.539,83.238,283.122,94.366,283.122,122.174z"/>
	</symbol>
	<symbol id="linkedin" viewBox="0 0 512 512" xmlns="http://www.w3.org/2000/svg">
		<path d="M116.504,500.219V170.654H6.975v329.564H116.504 L116.504,500.219z M61.751,125.674c38.183,0,61.968-25.328,61.968-56.953c-0.722-32.328-23.785-56.941-61.252-56.941 C24.994,11.781,0.5,36.394,0.5,68.722c0,31.625,23.772,56.953,60.53,56.953H61.751L61.751,125.674z M177.124,500.219 c0,0,1.437-298.643,0-329.564H286.67v47.794h-0.727c14.404-22.49,40.354-55.533,99.44-55.533 c72.085,0,126.116,47.103,126.116,148.333v188.971H401.971V323.912c0-44.301-15.848-74.531-55.497-74.531 c-30.254,0-48.284,20.38-56.202,40.08c-2.897,7.012-3.602,16.861-3.602,26.711v184.047H177.124L177.124,500.219z"/>
	</symbol>
	<symbol id="close" viewBox="0 0 44 44" xmlns="http://www.w3.org/2000/svg">
		<path fill-rule="evenodd" clip-rule="evenodd" d="M19.8788 22L0.939453 3.06067L3.06077 0.939346L22.0001 19.8787L40.9395 0.939346L43.0608 3.06067L24.1214 22L43.0608 40.9393L40.9395 43.0607L22.0001 24.1213L3.06077 43.0607L0.939453 40.9393L19.8788 22Z"/>
	</symbol>
	<symbol id="arrow-left" viewBox="0 0 11 19" xmlns="http://www.w3.org/2000/svg">
		<path fill-rule="evenodd" clip-rule="evenodd" d="M4.4031 9.33678L11 2.00689L8.77012 0L0.367015 9.33678L8.77012 18.6736L11 16.6667L4.4031 9.33678Z"/>
	</symbol>
	<symbol id="arrow-down" viewBox="0 0 19 11" xmlns="http://www.w3.org/2000/svg">
		<path fill-rule="evenodd" clip-rule="evenodd" d="M9.33678 6.5969L16.6667 6.40799e-07L18.6736 2.22988L9.33678 10.633L0 2.22988L2.00689 0L9.33678 6.5969Z"/>
	</symbol>		
	<symbol id="flag" viewBox="0 0 14 14"  xmlns="http://www.w3.org/2000/svg">
		<path fill-rule="evenodd" clip-rule="evenodd" d="M2.03022 2.17687V8.72323C3.80124 7.80971 6.03926 8.11694 7.50825 9.61097C8.72656 10.85 10.697 10.9108 11.97 9.78253V3.31887C10.2979 4.26424 8.13713 4.01673 6.7209 2.57637L6.51093 2.36282C5.28779 1.11883 3.32689 1.05685 2.03022 2.17687ZM2.03022 10.3763C3.32495 9.26137 5.30285 9.33327 6.52992 10.5813C8.33048 12.4125 11.2998 12.4403 13.1089 10.6003C13.2601 10.4465 13.3449 10.2391 13.3449 10.0229V2.1778C13.3449 1.45043 12.4672 1.08854 11.9583 1.60609C10.7866 2.79781 8.87099 2.79781 7.69923 1.60608L7.48927 1.39254C5.66366 -0.46418 2.67919 -0.464179 0.853583 1.39254L0.655273 1.59423V13.2414H2.03022V10.3763Z"/>
	</symbol>			
	<svg id="link" viewBox="0 0 18 18" xmlns="http://www.w3.org/2000/svg">
		<path fill-rule="evenodd" clip-rule="evenodd" d="M8.92506 1.97123C10.8867 0.00959098 14.0671 0.00959098 16.0288 1.97123C17.9904 3.93286 17.9904 7.1133 16.0288 9.07494L13.8162 11.2875L12.402 9.87331L14.6146 7.66073C15.7951 6.48014 15.7951 4.56603 14.6146 3.38544C13.434 2.20485 11.5199 2.20485 10.3393 3.38544L8.12669 5.59802L6.71248 4.18381L8.92506 1.97123L9.63217 2.67833L8.92506 1.97123ZM4.18381 6.71248L5.59802 8.12669L3.38544 10.3393C2.20485 11.5199 2.20485 13.434 3.38544 14.6146C4.56603 15.7951 6.48014 15.7951 7.66073 14.6146L9.87331 12.402L11.2875 13.8162L9.07494 16.0288C7.1133 17.9904 3.93286 17.9904 1.97123 16.0288C0.00959104 14.0671 0.00959092 10.8867 1.97123 8.92506L4.18381 6.71248Z"/>
	</svg>		
	<svg id="sun" viewBox="0 0 24 24" xmlns="http://www.w3.org/2000/svg">
		<path d="M13.6552 21.5175C13.6552 22.4316 12.9142 23.1726 12 23.1726C11.0859 23.1726 10.3449 22.4316 10.3449 21.5175C10.3449 20.6034 11.0859 19.8623 12 19.8623C12.9142 19.8623 13.6552 20.6034 13.6552 21.5175Z"/>
		<path d="M16.5517 12C16.5517 14.5138 14.5138 16.5517 12 16.5517C9.48613 16.5517 7.44825 14.5138 7.44825 12C7.44825 9.48612 9.48613 7.44824 12 7.44824C14.5138 7.44824 16.5517 9.48612 16.5517 12Z"/>
		<path d="M6.69598 20.0878C5.96879 20.815 4.78978 20.815 4.06259 20.0878C3.3354 19.3606 3.3354 18.1816 4.06259 17.4544C4.78978 16.7272 5.96879 16.7272 6.69598 17.4544C7.42317 18.1816 7.42317 19.3606 6.69598 20.0878Z"/>
		<path d="M17.1533 19.9373C16.4261 19.2101 16.4261 18.0311 17.1533 17.3039C17.8805 16.5767 19.0595 16.5767 19.7867 17.3039C20.5139 18.0311 20.5139 19.2101 19.7867 19.9373C19.0595 20.6645 17.8805 20.6645 17.1533 19.9373Z"/>
		<path d="M21.5172 13.6551C20.6031 13.6551 19.862 12.914 19.862 11.9999C19.862 11.0858 20.6031 10.3447 21.5172 10.3447C22.4313 10.3447 23.1724 11.0858 23.1724 11.9999C23.1724 12.914 22.4313 13.6551 21.5172 13.6551Z"/>
		<path d="M2.48278 13.6551C1.56865 13.6551 0.827606 12.914 0.827606 11.9999C0.827606 11.0858 1.56865 10.3447 2.48278 10.3447C3.3969 10.3447 4.13795 11.0858 4.13795 11.9999C4.13795 12.914 3.3969 13.6551 2.48278 13.6551Z"/>
		<path d="M19.9374 6.84657C19.2102 7.57376 18.0312 7.57376 17.304 6.84657C16.5769 6.11938 16.5769 4.94037 17.304 4.21318C18.0312 3.48599 19.2102 3.48599 19.9374 4.21318C20.6646 4.94037 20.6646 6.11938 19.9374 6.84657Z"/>
		<path d="M3.91199 6.69609C3.1848 5.9689 3.1848 4.78989 3.91199 4.0627C4.63918 3.33551 5.81819 3.33551 6.54538 4.0627C7.27257 4.78989 7.27257 5.9689 6.54538 6.69609C5.81819 7.42328 4.63918 7.42328 3.91199 6.69609Z"/>
		<path d="M13.6552 2.48281C13.6552 3.39694 12.9142 4.13798 12 4.13798C11.0859 4.13798 10.3449 3.39694 10.3449 2.48281C10.3449 1.56868 11.0859 0.827637 12 0.827637C12.9142 0.827637 13.6552 1.56868 13.6552 2.48281Z"/>
	</svg>
	<svg id="exit" viewBox="0 0 21 22" xmlns="http://www.w3.org/2000/svg">
		<path fill-rule="evenodd" clip-rule="evenodd" d="M9.10345 7.03448V0H11.5862V7.03448H9.10345Z"/>
		<path fill-rule="evenodd" clip-rule="evenodd" d="M19.0345 21.325L1.14793e-07 2.29057L1.46298 0.827586L20.4975 19.8621L19.0345 21.325Z"/>
		<path d="M18.3413 17.7353L16.8695 16.2635C16.4411 16.8125 15.9424 17.3087 15.3829 17.7381C13.9375 18.8471 12.1666 19.4483 10.3448 19.4483C8.52303 19.4483 6.75214 18.8471 5.30681 17.7381C3.86147 16.6291 2.82248 15.0741 2.35096 13.3144C1.87945 11.5546 2.00176 9.68851 2.69893 8.00538C3.24863 6.67829 4.13148 5.52346 5.25375 4.64777L3.78191 3.17593C2.47361 4.24969 1.44174 5.63404 0.787456 7.21362C-0.0840096 9.31753 -0.236901 11.6502 0.352496 13.8499C0.941892 16.0495 2.24064 17.9932 4.0473 19.3795C5.85396 20.7658 8.06758 21.5172 10.3448 21.5172C12.6221 21.5172 14.8357 20.7658 16.6424 19.3795C17.2735 18.8952 17.8427 18.3429 18.3413 17.7353Z"/>
		<path d="M17.9554 14.4235C18.1086 14.0649 18.2369 13.6944 18.3387 13.3144C18.8102 11.5546 18.6879 9.6885 17.9907 8.00538C17.2936 6.32226 16.0605 4.91621 14.4828 4.00531L15.5172 2.21353C17.4894 3.35216 19.0307 5.10971 19.9022 7.21362C20.7737 9.31752 20.9266 11.6502 20.3372 13.8499C20.1385 14.5912 19.8593 15.3035 19.5072 15.9752L17.9554 14.4235Z"/>
	</svg>	
	<svg id="bell" viewBox="0 0 21 23" xmlns="http://www.w3.org/2000/svg">
		<path fill-rule="evenodd" clip-rule="evenodd" d="M8.31725 20.6897C8.50895 21.634 9.34388 22.3448 10.3448 22.3448C11.3458 22.3448 12.1807 21.634 12.3724 20.6897H8.31725Z" />
		<path fill-rule="evenodd" clip-rule="evenodd" d="M10.3448 4.41966C6.97109 4.41966 4.23614 7.12631 4.23614 10.4651V12.953C4.23614 14.7693 3.60917 16.5209 2.47482 17.9252H18.2148C17.0805 16.5209 16.4535 14.7693 16.4535 12.953V10.4651C16.4535 7.12631 13.7186 4.41966 10.3448 4.41966ZM2.27898 10.4651C2.27898 6.05659 5.89018 2.48276 10.3448 2.48276C14.7995 2.48276 18.4107 6.05659 18.4107 10.4651V12.953C18.4107 14.5667 19.0647 16.113 20.2262 17.2456C21.21 18.2049 20.5236 19.8621 19.1426 19.8621H1.5471C0.166018 19.8621 -0.520336 18.2049 0.463452 17.2456C1.62498 16.113 2.27898 14.5667 2.27898 12.953V10.4651Z" />
		<path d="M8.68966 1.65517C8.68966 0.741046 9.4307 0 10.3448 0C11.259 0 12 0.741046 12 1.65517V2.48276C12 3.39688 11.259 4.13793 10.3448 4.13793C9.4307 4.13793 8.68966 3.39688 8.68966 2.48276V1.65517Z" />
	</svg>		
	<svg id="cinema" viewBox="0 0 22 22" xmlns="http://www.w3.org/2000/svg">
		<path d="M10.6895 19.276H18.9654V21.3449H10.6895C4.9761 21.3449 0.344727 16.7135 0.344727 11.0001C0.344727 5.28665 4.9761 0.655273 10.6895 0.655273C16.403 0.655273 21.0344 5.28665 21.0344 11.0001C21.0377 13.2389 20.3114 15.4179 18.9654 17.207H16.164C17.6167 15.9259 18.574 14.1758 18.8692 12.2615C19.1644 10.3472 18.7789 8.39002 17.7797 6.73075C16.7805 5.07147 15.2309 3.81524 13.4008 3.1808C11.5708 2.54635 9.57618 2.57391 7.76435 3.25865C5.95251 3.94339 4.43825 5.24195 3.48525 6.92819C2.53224 8.61443 2.20088 10.5815 2.54886 12.4869C2.89684 14.3923 3.90211 16.1153 5.38962 17.3558C6.87713 18.5964 8.75264 19.2758 10.6895 19.276Z"/>
		<path d="M12.3447 15.138C12.3447 16.0522 11.6037 16.7932 10.6896 16.7932C9.77543 16.7932 9.03438 16.0522 9.03438 15.138C9.03438 14.2239 9.77543 13.4829 10.6896 13.4829C11.6037 13.4829 12.3447 14.2239 12.3447 15.138Z"/>
		<path d="M14.8275 12.6553C13.9134 12.6553 13.1723 11.9142 13.1723 11.0001C13.1723 10.086 13.9134 9.34493 14.8275 9.34493C15.7416 9.34493 16.4827 10.086 16.4827 11.0001C16.4827 11.9142 15.7416 12.6553 14.8275 12.6553Z"/>
		<path d="M6.55162 12.6553C5.6375 12.6553 4.89645 11.9142 4.89645 11.0001C4.89645 10.086 5.6375 9.34493 6.55162 9.34493C7.46575 9.34493 8.2068 10.086 8.2068 11.0001C8.2068 11.9142 7.46575 12.6553 6.55162 12.6553Z"/>
		<path d="M12.3447 6.86217C12.3447 7.7763 11.6037 8.51734 10.6896 8.51734C9.77543 8.51734 9.03438 7.7763 9.03438 6.86217C9.03438 5.94804 9.77543 5.207 10.6896 5.207C11.6037 5.207 12.3447 5.94804 12.3447 6.86217Z"/>
	</svg>		
	<svg id="moon" viewBox="0 0 21 22" xmlns="http://www.w3.org/2000/svg">
		<path fill-rule="evenodd" clip-rule="evenodd" d="M17.0103 16.6898C15.5011 18.2832 13.3654 19.276 11.0001 19.276C6.42947 19.276 2.72424 15.5707 2.72424 11.0001C2.72424 6.99659 5.56703 3.65704 9.34414 2.88995C8.81265 4.10633 8.51734 5.45002 8.51734 6.86217C8.51734 11.8585 12.207 15.9931 17.0103 16.6898ZM18.3934 14.724C14.0766 14.6945 10.5863 11.1859 10.5863 6.86217C10.5863 5.35763 11.0089 3.9518 11.7419 2.75691C12.1668 2.0643 12.696 1.44257 13.3075 0.913567C12.5656 0.744537 11.7933 0.655273 11.0001 0.655273C10.8971 0.655273 10.7944 0.656779 10.6922 0.659769C5.12131 0.822631 0.655273 5.38982 0.655273 11.0001C0.655273 16.7134 5.28681 21.3449 11.0001 21.3449C14.5964 21.3449 17.7641 19.5098 19.6178 16.7249C20.1005 15.9997 20.4941 15.2101 20.783 14.3718C20.0454 14.6009 19.2613 14.7242 18.4484 14.7242C18.43 14.7242 18.4117 14.7242 18.3934 14.724Z"/>
	</svg>
	<svg id="on" viewBox="0 0 22 23" xmlns="http://www.w3.org/2000/svg">
		<path fill-rule="evenodd" clip-rule="evenodd" d="M9.75872 7.86212V0.827637H12.2415V7.86212H9.75872Z"/>
		<path d="M18.646 8.83302C17.9488 7.14989 16.7158 5.74384 15.138 4.83294L16.1725 3.04117C18.1447 4.17979 19.686 5.93735 20.5575 8.04126C21.4289 10.1452 21.5818 12.4778 20.9924 14.6775C20.403 16.8771 19.1043 18.8209 17.2976 20.2072C15.491 21.5935 13.2774 22.3449 11.0001 22.3449C8.72286 22.3449 6.50924 21.5935 4.70257 20.2072C2.89591 18.8209 1.59717 16.8771 1.00777 14.6775C0.418373 12.4778 0.571264 10.1452 1.44273 8.04126C2.3142 5.93735 3.85553 4.17979 5.82769 3.04117L6.86217 4.83295C5.28445 5.74385 4.05138 7.14989 3.3542 8.83302C2.65703 10.5161 2.53472 12.3823 3.00624 14.142C3.47775 15.9017 4.51675 17.4567 5.96208 18.5657C7.40741 19.6748 9.17831 20.2759 11.0001 20.2759C12.8219 20.2759 14.5928 19.6748 16.0381 18.5657C17.4835 17.4567 18.5225 15.9017 18.994 14.142C19.4655 12.3823 19.3432 10.5161 18.646 8.83302Z"/>
	</svg>
	<svg id="curtains" viewBox="0 0 33 32" xmlns="http://www.w3.org/2000/svg">
		<path fill-rule="evenodd" clip-rule="evenodd" d="M1.24414 3.50346C1.24414 2.7874 1.82463 2.20691 2.54069 2.20691H30.1269C30.843 2.20691 31.4234 2.7874 31.4234 3.50346C31.4234 4.21953 30.843 4.80001 30.1269 4.80001H2.54069C1.82463 4.80001 1.24414 4.21953 1.24414 3.50346Z"></path>
		<path fill-rule="evenodd" clip-rule="evenodd" d="M20.4713 3.31033C21.233 3.31033 21.8506 3.86969 21.8506 4.55969L21.8506 26.8886C21.8506 27.5786 21.233 28.1379 20.4713 28.1379C19.7095 28.1379 19.092 27.5786 19.092 26.8886L19.092 4.55969C19.092 3.86969 19.7095 3.31033 20.4713 3.31033Z"></path>
		<path fill-rule="evenodd" clip-rule="evenodd" d="M12.7472 3.31033C13.5089 3.31033 14.1265 3.85495 14.1265 4.52678L14.1265 24.7146C14.1265 25.3864 13.5089 25.931 12.7472 25.931C11.9854 25.931 11.3678 25.3864 11.3678 24.7146L11.3678 4.52678C11.3678 3.85495 11.9854 3.31033 12.7472 3.31033Z"></path>
		<path fill-rule="evenodd" clip-rule="evenodd" d="M5.57479 3.31033C6.33656 3.31033 6.9541 3.88264 6.9541 4.58862L6.9541 29.0665C6.9541 29.7725 6.33656 30.3448 5.57479 30.3448C4.81302 30.3448 4.19548 29.7725 4.19548 29.0665L4.19548 4.58862C4.19548 3.88264 4.81302 3.31033 5.57479 3.31033Z"></path>
	</svg>
	<svg id="climat" viewBox="0 0 32 32" xmlns="http://www.w3.org/2000/svg">
		<path d="M4.27519 10.2964C7.05961 7.94793 9.2591 6.09104 15.228 9.40401C18.0953 10.9947 20.4079 11.596 22.3317 11.5928C25.7026 11.5928 27.8878 9.75159 29.7765 8.15929C30.1006 7.88225 30.3022 7.49209 30.3385 7.0715C30.3748 6.65092 30.243 6.23298 29.9709 5.90628C29.8382 5.74597 29.6741 5.61344 29.4883 5.51651C29.3025 5.41959 29.0989 5.36025 28.8893 5.342C28.6798 5.32375 28.4687 5.34697 28.2685 5.41028C28.0682 5.47359 27.883 5.5757 27.7236 5.71058C24.9408 8.06222 22.7397 9.91911 16.7708 6.60301C8.88454 2.23008 5.19005 5.34577 2.22234 7.85085C1.8984 8.12811 1.69709 8.51839 1.66109 8.93896C1.62509 9.35954 1.75722 9.77736 2.02949 10.1039C2.16229 10.2639 2.32642 10.3961 2.51217 10.4928C2.69793 10.5894 2.90152 10.6484 3.11091 10.6664C3.3203 10.6843 3.53122 10.6608 3.73121 10.5973C3.93119 10.5338 4.11617 10.4315 4.27519 10.2964ZM27.7236 13.7065C24.9408 16.055 22.7397 17.915 16.7708 14.5989C8.88454 10.2229 5.19005 13.3401 2.22234 15.8436C1.8984 16.1209 1.69709 16.5112 1.66109 16.9317C1.62509 17.3523 1.75722 17.7701 2.02949 18.0966C2.16206 18.2569 2.32602 18.3894 2.51165 18.4863C2.69729 18.5832 2.90083 18.6426 3.11023 18.6608C3.31962 18.679 3.53062 18.6558 3.73072 18.5926C3.93083 18.5293 4.11597 18.4272 4.27519 18.2923C7.05961 15.9423 9.2591 14.0854 15.228 17.3968C18.0953 18.9906 20.4079 19.5887 22.3317 19.5887C25.7026 19.5887 27.8878 17.7475 29.7765 16.1521C30.1009 15.8755 30.3027 15.4856 30.339 15.0651C30.3753 14.6447 30.2433 14.2269 29.9709 13.9006C29.8382 13.7402 29.6741 13.6077 29.4882 13.5108C29.3024 13.4139 29.0987 13.3546 28.8891 13.3365C28.6795 13.3184 28.4683 13.3418 28.2681 13.4054C28.0679 13.4689 27.8828 13.5713 27.7236 13.7065ZM27.7236 21.7008C24.9408 24.0525 22.7397 25.9094 16.7708 22.5964C8.88454 18.2203 5.19005 21.336 2.22234 23.8411C1.8984 24.1184 1.69709 24.5086 1.66109 24.9292C1.62509 25.3498 1.75722 25.7676 2.02949 26.0941C2.16216 26.2543 2.32624 26.3867 2.512 26.4835C2.69775 26.5802 2.9014 26.6393 3.11085 26.6573C3.3203 26.6753 3.53129 26.6517 3.7313 26.5881C3.93131 26.5244 4.11627 26.4219 4.27519 26.2867C7.05961 23.9382 9.2591 22.0828 15.228 25.3943C18.0953 26.985 20.4079 27.5862 22.3317 27.5862C25.7026 27.5862 27.8878 25.7418 29.7765 24.1495C30.1006 23.8725 30.3022 23.4823 30.3385 23.0618C30.3748 22.6412 30.243 22.2232 29.9709 21.8965C29.8381 21.7364 29.6739 21.604 29.4881 21.5072C29.3024 21.4104 29.0987 21.3512 28.8893 21.3329C28.6798 21.3147 28.4688 21.3378 28.2686 21.401C28.0683 21.4642 27.8831 21.5662 27.7236 21.7008Z"></path>
	</svg>
	<svg id="accept" viewBox="0 0 20 20" xmlns="http://www.w3.org/2000/svg">
		<path fill-rule="evenodd" clip-rule="evenodd" d="M2.4 10C2.4 14.1974 5.80264 17.6 10 17.6C14.1974 17.6 17.6 14.1974 17.6 10C17.6 5.80264 14.1974 2.4 10 2.4C5.80264 2.4 2.4 5.80264 2.4 10ZM10 0C4.47715 0 0 4.47715 0 10C0 15.5228 4.47715 20 10 20C15.5228 20 20 15.5228 20 10C20 4.47715 15.5228 0 10 0Z"/>
		<path d="M6.80598 9.07865C6.7351 9.01032 6.65085 8.95611 6.55807 8.91911C6.46529 8.88212 6.3658 8.86307 6.26533 8.86307C6.16485 8.86307 6.06537 8.88212 5.97259 8.91911C5.87981 8.95611 5.79555 9.01032 5.72467 9.07865C5.65346 9.14666 5.59696 9.2275 5.5584 9.31653C5.51985 9.40556 5.5 9.50101 5.5 9.59742C5.5 9.69382 5.51985 9.78928 5.5584 9.87831C5.59696 9.96733 5.65346 10.0482 5.72467 10.1162L8.51824 12.7967C8.58529 12.8611 8.66493 12.9123 8.7526 12.9472C8.84027 12.982 8.93425 13 9.02916 13C9.12407 13 9.21805 12.982 9.30572 12.9472C9.39339 12.9123 9.47303 12.8611 9.54008 12.7967L14.2881 8.24087C14.3553 8.17654 14.4086 8.10012 14.4449 8.016C14.4813 7.93188 14.5 7.84171 14.5 7.75064C14.5 7.65957 14.4813 7.56939 14.4449 7.48527C14.4086 7.40115 14.3553 7.32474 14.2881 7.2604L14.2286 7.20333C14.1616 7.13887 14.0819 7.08774 13.9943 7.05285C13.9066 7.01796 13.8126 7 13.7177 7C13.6228 7 13.5288 7.01796 13.4411 7.05285C13.3535 7.08774 13.2738 7.13887 13.2068 7.20333L9.0281 11.2108L6.80598 9.07865Z"/>
	</svg>
	<svg id="living" viewBox="0 0 15 23" xmlns="http://www.w3.org/2000/svg">
		<path fill-rule="evenodd" clip-rule="evenodd" d="M4.554 3.81143C3.59203 4.57428 2.82758 5.79985 2.82758 7.73471C2.82758 9.6468 3.66337 11.0489 4.74158 12.053C5.75326 12.9951 6.9602 13.565 7.81121 13.8178C8.69287 13.5952 9.94256 13.0594 10.9884 12.1293C12.0974 11.143 12.9655 9.72948 12.9655 7.73471C12.9655 5.7055 12.1951 4.49239 11.2288 3.75983C10.2216 2.99621 8.91037 2.68971 7.79129 2.68971C6.81222 2.68971 5.55073 3.02101 4.554 3.81143ZM6.17052 15.1881C5.29657 14.7977 4.33224 14.2162 3.47258 13.4157C2.09464 12.1325 0.965515 10.262 0.965515 7.73471C0.965515 5.23023 1.99054 3.46778 3.397 2.35244C4.76869 1.26468 6.45456 0.827637 7.79129 0.827637C9.19852 0.827637 10.9399 1.20411 12.3538 2.27599C13.8086 3.37893 14.8276 5.15384 14.8276 7.73471C14.8276 10.35 13.6606 12.2447 12.2258 13.5207C10.9156 14.686 9.37298 15.3483 8.23805 15.6304C7.90339 15.9579 7.3889 16.5795 7.10894 17.2819C7.43834 17.3922 7.93607 17.4748 8.57759 17.5641C8.66128 17.5758 8.74719 17.5875 8.83472 17.5994C9.41693 17.679 10.0713 17.7684 10.625 17.9063C10.9471 17.9865 11.2848 18.0944 11.5833 18.2528C11.876 18.408 12.2163 18.657 12.4159 19.0616C12.6223 19.4802 12.5844 19.9151 12.4099 20.2704C12.2565 20.5828 12.0101 20.816 11.7934 20.9831C11.3545 21.3214 10.744 21.608 10.1348 21.8455C8.89111 22.3303 7.34139 22.7269 6.2983 22.9457L5.91605 21.1233C6.90804 20.9153 8.3478 20.5436 9.45851 20.1106C9.78907 19.9817 10.0654 19.8569 10.2824 19.7413C10.2483 19.7319 10.2125 19.7225 10.1749 19.7132C9.72745 19.6017 9.18674 19.5275 8.59169 19.4457C8.50262 19.4335 8.41233 19.4211 8.32096 19.4084C7.67464 19.3185 6.92497 19.2074 6.363 18.9922C6.08444 18.8855 5.73212 18.7106 5.4754 18.3973C5.17072 18.0254 5.07898 17.5551 5.21105 17.0865C5.41489 16.3632 5.78718 15.7113 6.17052 15.1881ZM10.7868 19.9459C10.7868 19.9459 10.7865 19.9456 10.7859 19.945C10.7865 19.9456 10.7869 19.9459 10.7868 19.9459Z"/>
	</svg>		
	<svg id="baby" viewBox="0 0 21 21" xmlns="http://www.w3.org/2000/svg">
		<path fill-rule="evenodd" clip-rule="evenodd" d="M10.3448 18.6207C14.9155 18.6207 18.6207 14.9155 18.6207 10.3448C18.6207 5.7742 14.9155 2.06897 10.3448 2.06897C5.7742 2.06897 2.06897 5.7742 2.06897 10.3448C2.06897 14.9155 5.7742 18.6207 10.3448 18.6207ZM10.3448 20.6897C16.0581 20.6897 20.6897 16.0581 20.6897 10.3448C20.6897 4.63154 16.0581 0 10.3448 0C4.63154 0 0 4.63154 0 10.3448C0 16.0581 4.63154 20.6897 10.3448 20.6897Z"/>
		<path d="M15.3103 10.1377C15.3103 10.9376 14.6619 11.586 13.8621 11.586C13.0622 11.586 12.4138 10.9376 12.4138 10.1377C12.4138 9.33787 13.0622 8.68945 13.8621 8.68945C14.6619 8.68945 15.3103 9.33787 15.3103 10.1377Z"/>
		<path d="M8.27585 10.1377C8.27585 10.9376 7.62744 11.586 6.82758 11.586C6.02772 11.586 5.3793 10.9376 5.3793 10.1377C5.3793 9.33787 6.02772 8.68945 6.82758 8.68945C7.62744 8.68945 8.27585 9.33787 8.27585 10.1377Z"/>
		<path fill-rule="evenodd" clip-rule="evenodd" d="M10.4822 0.321725C10.9901 0.583488 11.1895 1.20737 10.9278 1.71521C10.4101 2.71957 9.85788 4.09034 9.74414 5.05651C9.71044 5.34281 9.72603 5.50597 9.74103 5.58768C9.80766 5.58647 9.91711 5.57388 10.0863 5.53021C10.6395 5.38742 11.2037 5.72011 11.3465 6.27331C11.4893 6.8265 11.1566 7.39072 10.6034 7.53351C9.73815 7.75686 8.77712 7.72136 8.15124 6.96154C7.61808 6.31429 7.61527 5.44403 7.68937 4.81461C7.84767 3.46993 8.5407 1.83051 9.08875 0.767278C9.35051 0.259443 9.97439 0.0599614 10.4822 0.321725ZM9.65265 5.57691C9.65265 5.57691 9.6624 5.5772 9.67628 5.58431C9.65866 5.58156 9.65265 5.57691 9.65265 5.57691Z"/>
		<path fill-rule="evenodd" clip-rule="evenodd" d="M14.4098 13.1544C14.8006 13.5712 14.7795 14.2258 14.3627 14.6166L14.2542 14.7182C12.0621 16.7734 8.63462 16.7181 6.50987 14.5934C6.10588 14.1894 6.10588 13.5344 6.50987 13.1304C6.91386 12.7264 7.56886 12.7264 7.97285 13.1304C9.30798 14.4655 11.4617 14.5002 12.8392 13.2089L12.9476 13.1072C13.3644 12.7164 14.0191 12.7375 14.4098 13.1544Z"/>
	</svg>		
	<svg id="cinema" viewBox="0 0 21 21" xmlns="http://www.w3.org/2000/svg">
		<path d="M10.3448 18.6207H18.6207V20.6897H10.3448C4.63138 20.6897 0 16.0583 0 10.3448C0 4.63138 4.63138 0 10.3448 0C16.0583 0 20.6896 4.63138 20.6896 10.3448C20.6929 12.5837 19.9666 14.7626 18.6207 16.5517H15.8193C17.272 15.2706 18.2293 13.5205 18.5245 11.6062C18.8197 9.69193 18.4341 7.73475 17.4349 6.07547C16.4357 4.4162 14.8862 3.15996 13.0561 2.52552C11.2261 1.89108 9.23145 1.91863 7.41962 2.60338C5.60779 3.28812 4.09352 4.58668 3.14052 6.27292C2.18752 7.95915 1.85615 9.92624 2.20413 11.8316C2.55211 13.737 3.55738 15.46 5.04489 16.7005C6.53241 17.9411 8.40791 18.6206 10.3448 18.6207Z"/>
		<path d="M12 14.4826C12 15.3967 11.259 16.1377 10.3449 16.1377C9.43074 16.1377 8.6897 15.3967 8.6897 14.4826C8.6897 13.5684 9.43074 12.8274 10.3449 12.8274C11.259 12.8274 12 13.5684 12 14.4826Z"/>
		<path d="M14.4828 11.9998C13.5686 11.9998 12.8276 11.2588 12.8276 10.3446C12.8276 9.4305 13.5686 8.68945 14.4828 8.68945C15.3969 8.68945 16.1379 9.4305 16.1379 10.3446C16.1379 11.2588 15.3969 11.9998 14.4828 11.9998Z"/>
		<path d="M6.20689 11.9998C5.29276 11.9998 4.55172 11.2588 4.55172 10.3446C4.55172 9.4305 5.29276 8.68945 6.20689 8.68945C7.12101 8.68945 7.86206 9.4305 7.86206 10.3446C7.86206 11.2588 7.12101 11.9998 6.20689 11.9998Z"/>
		<path d="M12 6.20669C12 7.12081 11.259 7.86186 10.3449 7.86186C9.43074 7.86186 8.6897 7.12081 8.6897 6.20669C8.6897 5.29256 9.43074 4.55151 10.3449 4.55151C11.259 4.55151 12 5.29256 12 6.20669Z"/>
	</svg>	
	<svg id="shower" viewBox="0 0 18 22" xmlns="http://www.w3.org/2000/svg">
		<path fill-rule="evenodd" clip-rule="evenodd" d="M15.2591 12.4138C14.8519 9.14791 12.0659 6.62072 8.68966 6.62072C5.31342 6.62072 2.52744 9.14791 2.12019 12.4138H15.2591ZM8.68966 4.55176C3.89049 4.55176 0 8.44225 0 13.2414V14.0099C0 14.2711 0.211728 14.4828 0.472907 14.4828H16.9064C17.1676 14.4828 17.3793 14.2711 17.3793 14.0099V13.2414C17.3793 8.44225 13.4888 4.55176 8.68966 4.55176Z"/>
		<path d="M7.44824 0H9.931V4.96552H7.44824V0Z"/>
		<path d="M4.71723 18.538C4.43585 18.538 4.19982 18.4426 4.00915 18.252C3.81847 18.0613 3.72346 17.8256 3.72412 17.5449C3.72412 17.2635 3.81946 17.0275 4.01014 16.8368C4.20081 16.6461 4.43651 16.5511 4.71723 16.5518C4.99861 16.5518 5.23463 16.6471 5.42531 16.8378C5.61599 17.0284 5.71099 17.2641 5.71033 17.5449C5.71033 17.8262 5.61499 18.0623 5.42432 18.2529C5.23364 18.4436 4.99794 18.5386 4.71723 18.538ZM8.68964 18.538C8.40826 18.538 8.17223 18.4426 7.98156 18.252C7.79088 18.0613 7.69587 17.8256 7.69654 17.5449C7.69654 17.2635 7.79187 17.0275 7.98255 16.8368C8.17322 16.6461 8.40892 16.5511 8.68964 16.5518C8.97102 16.5518 9.20704 16.6471 9.39772 16.8378C9.5884 17.0284 9.6834 17.2641 9.68274 17.5449C9.68274 17.8262 9.5874 18.0623 9.39673 18.2529C9.20605 18.4436 8.97036 18.5386 8.68964 18.538ZM12.662 18.538C12.3807 18.538 12.1446 18.4426 11.954 18.252C11.7633 18.0613 11.6683 17.8256 11.6689 17.5449C11.6689 17.2635 11.7643 17.0275 11.955 16.8368C12.1456 16.6461 12.3813 16.5511 12.662 16.5518C12.9434 16.5518 13.1795 16.6471 13.3701 16.8378C13.5608 17.0284 13.6558 17.2641 13.6552 17.5449C13.6552 17.8262 13.5598 18.0623 13.3691 18.2529C13.1785 18.4436 12.9428 18.5386 12.662 18.538ZM4.71723 21.5173C4.43585 21.5173 4.19982 21.4219 4.00915 21.2313C3.81847 21.0406 3.72346 20.8049 3.72412 20.5242C3.72412 20.2428 3.81946 20.0068 4.01014 19.8161C4.20081 19.6254 4.43651 19.5304 4.71723 19.5311C4.99861 19.5311 5.23463 19.6264 5.42531 19.8171C5.61599 20.0078 5.71099 20.2435 5.71033 20.5242C5.71033 20.8055 5.61499 21.0416 5.42432 21.2323C5.23364 21.4229 4.99794 21.5179 4.71723 21.5173ZM8.68964 21.5173C8.40826 21.5173 8.17223 21.4219 7.98156 21.2313C7.79088 21.0406 7.69587 20.8049 7.69654 20.5242C7.69654 20.2428 7.79187 20.0068 7.98255 19.8161C8.17322 19.6254 8.40892 19.5304 8.68964 19.5311C8.97102 19.5311 9.20704 19.6264 9.39772 19.8171C9.5884 20.0078 9.6834 20.2435 9.68274 20.5242C9.68274 20.8055 9.5874 21.0416 9.39673 21.2323C9.20605 21.4229 8.97036 21.5179 8.68964 21.5173ZM12.662 21.5173C12.3807 21.5173 12.1446 21.4219 11.954 21.2313C11.7633 21.0406 11.6683 20.8049 11.6689 20.5242C11.6689 20.2428 11.7643 20.0068 11.955 19.8161C12.1456 19.6254 12.3813 19.5304 12.662 19.5311C12.9434 19.5311 13.1795 19.6264 13.3701 19.8171C13.5608 20.0078 13.6558 20.2435 13.6552 20.5242C13.6552 20.8055 13.5598 21.0416 13.3691 21.2323C13.1785 21.4229 12.9428 21.5179 12.662 21.5173Z"/>
	</svg>		
	<svg id="door" viewBox="0 0 48 54" xmlns="http://www.w3.org/2000/svg">
		<path fill-rule="evenodd" clip-rule="evenodd" d="M40 5H8V49H40V5ZM3 0V54H45V0H3Z"/>
		<path d="M0 49H48V54H0V49Z"/>
		<path d="M32 24H38V30H32V24Z"/>
	</svg>		
	<svg id="func" viewBox="0 0 22 22" xmlns="http://www.w3.org/2000/svg">
		<path d="M21.2656 8.77808C21.2423 8.67324 21.1968 8.57462 21.1321 8.4889C21.0674 8.40317 20.985 8.33235 20.8906 8.2812L18.6593 7.0437C18.5397 6.80117 18.4051 6.56633 18.2562 6.34058L18.3031 3.79058C18.3039 3.68362 18.2827 3.57764 18.2408 3.47924C18.1989 3.38085 18.1371 3.29215 18.0593 3.2187C16.9484 2.21142 15.6345 1.4538 14.2062 0.996827C14.1036 0.964844 13.9954 0.954992 13.8888 0.96792C13.7821 0.980849 13.6794 1.01626 13.5875 1.07183L11.4031 2.38433C11.1312 2.37495 10.8687 2.37495 10.5968 2.38433L8.41245 1.07183C8.32049 1.01626 8.21779 0.980849 8.11112 0.96792C8.00446 0.954992 7.89627 0.964844 7.7937 0.996827C6.36351 1.45415 5.04911 2.21529 3.94057 3.22808C3.86214 3.299 3.79981 3.3859 3.75777 3.48292C3.71572 3.57995 3.69494 3.68485 3.69682 3.79058L3.7437 6.34058C3.5937 6.56558 3.46245 6.79995 3.3312 7.0437L1.09995 8.2812C1.00688 8.33288 0.926037 8.40402 0.862941 8.48976C0.799846 8.57551 0.755977 8.67385 0.734324 8.77808C0.415544 10.2422 0.415544 11.7577 0.734324 13.2218C0.757611 13.3267 0.803143 13.4253 0.867839 13.511C0.932535 13.5967 1.01489 13.6676 1.10932 13.7187L3.34057 14.9562C3.46018 15.1987 3.59482 15.4336 3.7437 15.6593L3.69682 18.2093C3.69597 18.3163 3.71717 18.4223 3.75911 18.5207C3.80105 18.6191 3.86282 18.7078 3.94057 18.7812C5.05155 19.7885 6.3654 20.5461 7.7937 21.0031C7.89627 21.0351 8.00446 21.0449 8.11112 21.032C8.21779 21.0191 8.32049 20.9836 8.41245 20.9281L10.5968 19.6156H11.4031L13.5968 20.9281C13.7109 21.0031 13.8447 21.0422 13.9812 21.0406C14.0574 21.0373 14.133 21.0247 14.2062 21.0031C15.6364 20.5458 16.9508 19.7846 18.0593 18.7718C18.1378 18.7009 18.2001 18.614 18.2421 18.517C18.2842 18.42 18.305 18.3151 18.3031 18.2093L18.2562 15.6593C18.4062 15.4343 18.5375 15.2 18.6687 14.9562L20.9 13.7187C20.993 13.667 21.0739 13.5959 21.137 13.5101C21.2001 13.4244 21.2439 13.3261 21.2656 13.2218C21.5844 11.7577 21.5844 10.2422 21.2656 8.77808ZM19.8593 12.575L17.7312 13.7562C17.5962 13.8347 17.4883 13.9524 17.4218 14.0937C17.2676 14.4132 17.0889 14.7204 16.8875 15.0125C16.8019 15.1435 16.7563 15.2966 16.7562 15.4531L16.7937 17.8812C15.9866 18.5685 15.0625 19.1051 14.0656 19.4656L11.9749 18.2093C11.8583 18.1414 11.7256 18.1058 11.5906 18.1062H11.5343C11.1786 18.1343 10.8213 18.1343 10.4656 18.1062C10.3119 18.0978 10.159 18.1336 10.0249 18.2093L7.93432 19.4656C6.93859 19.1068 6.01477 18.5735 5.2062 17.8906L5.2437 15.4531C5.24364 15.2966 5.19804 15.1435 5.11245 15.0125C4.9144 14.7182 4.73589 14.4113 4.57807 14.0937C4.50886 13.9543 4.4016 13.8373 4.2687 13.7562L2.14057 12.575C1.95301 11.5333 1.95301 10.4666 2.14057 9.42495L4.2687 8.2437C4.40371 8.16524 4.51162 8.04751 4.57807 7.9062C4.73231 7.58667 4.91097 7.27951 5.11245 6.98745C5.19804 6.85643 5.24364 6.70333 5.2437 6.54683L5.2062 4.1187C6.01334 3.43145 6.9374 2.8948 7.93432 2.53433L10.0249 3.79058C10.1586 3.86732 10.3118 3.90318 10.4656 3.8937C10.8213 3.86557 11.1786 3.86557 11.5343 3.8937C11.688 3.9021 11.8409 3.86631 11.9749 3.79058L14.0656 2.53433C15.0613 2.89306 15.9851 3.4264 16.7937 4.10933L16.7562 6.54683C16.7563 6.70333 16.8019 6.85643 16.8875 6.98745C17.0855 7.28167 17.264 7.58858 17.4218 7.9062C17.491 8.04564 17.5983 8.16264 17.7312 8.2437L19.8593 9.42495C20.0469 10.4666 20.0469 11.5333 19.8593 12.575ZM10.9999 5.74995C9.9616 5.74995 8.94656 6.05786 8.08321 6.63474C7.21985 7.21161 6.54694 8.03155 6.14958 8.99086C5.75222 9.95018 5.64825 11.0058 5.85083 12.0242C6.0534 13.0426 6.55341 13.978 7.28764 14.7123C8.02186 15.4465 8.95732 15.9465 9.97573 16.1491C10.9941 16.3516 12.0497 16.2477 13.009 15.8503C13.9683 15.453 14.7883 14.7801 15.3652 13.9167C15.942 13.0533 16.25 12.0383 16.25 11C16.25 9.60757 15.6968 8.27221 14.7123 7.28764C13.7277 6.30308 12.3923 5.74995 10.9999 5.74995ZM10.9999 14.75C10.2583 14.75 9.53325 14.53 8.91656 14.118C8.29988 13.7059 7.81923 13.1202 7.5354 12.435C7.25157 11.7498 7.17731 10.9958 7.322 10.2684C7.4667 9.54094 7.82385 8.87275 8.3483 8.3483C8.87275 7.82386 9.54093 7.4667 10.2684 7.32201C10.9958 7.17731 11.7498 7.25158 12.435 7.5354C13.1202 7.81923 13.7059 8.29988 14.118 8.91656C14.53 9.53325 14.7499 10.2583 14.75 11C14.75 11.9945 14.3549 12.9483 13.6516 13.6516C12.9483 14.3549 11.9945 14.75 10.9999 14.75Z"/>
	</svg>		
</svg>
